<svg width="134" height="34" viewBox="0 0 134 34" fill="none" xmlns="http://www.w3.org/2000/svg">
    <path d="M7.79858 33.435C5.08018 33.435 2.36179 32.2927 0.960118 30.9307C-0.0592804 29.9641 -0.14423 28.2945 0.832693 27.2401C1.76714 26.1417 3.38119 26.0977 4.40059 27.0643C5.16514 27.8112 8.01095 28.8218 9.625 27.7234C10.0498 27.4598 10.3046 26.9765 10.3046 26.4932C10.3046 25.8781 9.7949 25.4387 9.37015 25.263C8.98788 25.0433 8.30828 25.0433 7.54373 25.0433C6.52433 25.0433 5.37751 24.9994 4.18821 24.56C1.97952 23.8131 0.195569 21.4406 0.0256696 19.1559C-0.186705 16.388 0.960118 14.6745 1.93704 13.7079C4.06079 11.6869 7.16146 11.3793 9.41263 11.7747C11.1116 12.0823 12.3859 12.6974 13.4477 13.7079C14.4671 14.6745 14.5521 16.344 13.6176 17.3985C13.0655 18.0136 12.2584 18.3211 11.4514 18.2333C11.0691 18.1893 10.6869 18.0575 10.3471 17.8379C9.75243 17.3985 9.32768 17.091 8.56313 16.9591C7.28888 16.7395 4.91029 16.8273 5.08019 18.7166C5.12266 18.9362 5.50494 19.5074 5.84473 19.6392C6.26948 19.771 6.90661 19.771 7.58621 19.771C8.69055 19.815 10.0922 19.815 11.4939 20.474C13.83 21.5724 15.3591 23.9449 15.3591 26.4932C15.3591 28.7339 14.2548 30.8428 12.4283 32.1169C10.9842 33.0835 9.41263 33.435 7.79858 33.435Z" fill="#FF547D"/>
    <path d="M36.291 22.2314C35.9512 23.0662 35.2291 23.8131 34.2097 23.8131H21.1274C21.7221 26.3174 23.8883 28.2506 26.5217 28.2506C27.8809 28.2506 29.8772 27.6794 30.9816 26.581C32.001 25.5705 33.615 25.5705 34.592 26.625C35.6114 27.6355 35.5689 29.349 34.5495 30.3595C32.2134 32.6881 28.9428 33.4789 26.5217 33.4789C20.6177 33.4789 15.903 28.5581 15.903 22.4511C15.903 16.4319 20.6177 11.4233 26.5217 11.4233C27.1588 11.4233 27.7535 11.4672 28.3906 11.599C31.2789 12.1702 33.7425 14.0155 35.2716 16.6516C35.9512 17.8818 36.7157 19.5074 36.6308 20.9573C36.6308 21.3527 36.4609 21.7921 36.291 22.2314ZM26.5217 16.7395C24.5679 16.7395 22.8689 17.75 21.8495 19.3756H30.8542C30.0047 17.706 28.4331 16.7395 26.5217 16.7395Z" fill="#FF547D"/>
    <path d="M47.9112 33.2593C42.0496 33.2593 37.25 28.3385 37.25 22.2314C37.25 16.1683 42.0496 11.2036 47.9112 11.2036C53.7727 11.2036 58.5724 16.1683 58.6149 22.2754C58.5724 28.3385 53.7727 33.2593 47.9112 33.2593ZM47.9112 16.6077C44.8954 16.6077 42.4744 19.112 42.4744 22.2314C42.4744 25.3508 44.8954 27.8552 47.9112 27.8552C50.9269 27.8552 53.348 25.3508 53.348 22.2314C53.348 19.112 50.9269 16.6077 47.9112 16.6077Z" fill="#FF547D"/>
    <path d="M70.4006 33.4789C64.8789 33.4789 60.3341 28.5142 60.3341 22.4511V14.0594C60.3341 12.6095 61.396 11.4233 62.7127 11.4233C64.0719 11.4233 65.3886 12.6095 65.3886 14.0594V22.4511C65.3886 25.6145 67.9371 28.1627 70.4006 28.1627C73.2889 28.1627 75.4552 25.6145 75.4552 22.4511V14.4109C75.4552 12.9171 76.9418 11.7747 78.0886 11.7747C79.4053 11.7747 80.5097 12.9171 80.5097 14.4109V22.4511C80.5097 28.5142 75.9649 33.4789 70.4006 33.4789Z" fill="#FF547D"/>
    <path d="M89.0763 28.0309C90.5205 28.0309 91.6673 29.2172 91.6673 30.667C91.6673 32.1609 90.5205 33.3471 89.0763 33.3471C87.2924 33.3471 85.5509 32.4245 84.4466 30.9746C83.1723 29.2611 83.2573 27.3279 83.2573 25.263V12.1262C83.2573 8.96286 83.2573 5.7995 83.2573 2.63614C83.2573 1.18626 84.4041 0 85.8058 0C87.2499 0 88.3967 1.18626 88.3967 2.63614V26.4932C88.3967 26.625 88.3543 26.7568 88.3543 26.8886C88.3543 27.0204 88.3967 27.1522 88.3967 27.284C88.3967 27.6794 88.6941 28.0309 89.0763 28.0309Z" fill="#FF547D"/>
    <path d="M119.066 11.6453C119.066 13.1289 117.903 14.3316 116.469 14.3316C115.035 14.3316 113.872 13.1289 113.872 11.6453C113.872 10.1617 115.035 8.95898 116.469 8.95898C117.903 8.95898 119.066 10.1617 119.066 11.6453Z" fill="#53A9FF"/>
    <path d="M123.891 33.9999C118.369 33.9999 113.824 29.0352 113.824 22.9721V19.6499C113.824 18.2 114.886 17.0137 116.203 17.0137C117.562 17.0137 118.879 18.2 118.879 19.6499V22.9721C118.879 26.1354 121.427 28.6837 123.891 28.6837C126.779 28.6837 128.945 26.1354 128.945 22.9721V19.6499C128.945 18.1561 130.432 17.0137 131.579 17.0137C132.895 17.0137 134 18.1561 134 19.6499V22.9721C134 29.0352 129.455 33.9999 123.891 33.9999Z" fill="#53A9FF"/>
    <path d="M131.369 14.3316C132.803 14.3316 133.966 13.1289 133.966 11.6453C133.966 10.1617 132.803 8.95898 131.369 8.95898C129.934 8.95898 128.772 10.1617 128.772 11.6453C128.772 13.1289 129.934 14.3316 131.369 14.3316Z" fill="#53A9FF"/>
    <path fill-rule="evenodd" clip-rule="evenodd" d="M111.667 31.1284L111.667 31.1304C111.624 32.0128 111.16 32.9218 110.339 33.3932L110.325 33.4015C109.627 33.7835 108.812 33.7822 108.281 33.7815C108.259 33.7815 108.237 33.7815 108.216 33.7815H96.919C96.9022 33.7815 96.885 33.7815 96.8674 33.7815C96.4467 33.782 95.8152 33.7827 95.2343 33.5252L95.2271 33.522C94.1098 33.0135 93.4359 31.6147 93.8062 30.3698L93.8118 30.3511C94.0127 29.7278 94.4021 29.2454 94.6859 28.8937C94.6963 28.8808 94.7065 28.8682 94.7166 28.8556C96.2861 26.9112 98.0493 24.9269 99.7816 22.9772C100.923 21.6927 102.051 20.423 103.102 19.189C103.821 18.3491 104.361 17.627 104.448 16.8322C104.55 15.9239 103.942 14.9013 102.979 14.3905L102.975 14.3883C101.745 13.7269 100.124 13.9223 99.1522 14.8536L99.151 14.8548C99.0707 14.9314 98.9882 15.0181 98.8908 15.1218C98.8806 15.1327 98.8702 15.1438 98.8595 15.1551C98.7741 15.2462 98.6767 15.35 98.5765 15.4497C98.3549 15.6703 98.0613 15.9318 97.688 16.102C96.7111 16.5586 95.5317 16.3308 94.7787 15.5519C94.0338 14.7814 93.7963 13.8809 94.0314 12.9847C94.2444 12.1727 94.8148 11.4849 95.4111 10.949C96.6102 9.87122 98.306 9.06203 99.2372 8.8116C101.266 8.25293 103.47 8.57118 105.297 9.53367C106.866 10.3623 108.213 11.7132 108.993 13.3959C109.735 14.9664 109.985 16.8421 109.497 18.5744C109.017 20.2744 107.903 21.683 106.909 22.8672C106.032 23.9335 104.581 25.5731 103.297 26.9838C102.855 27.4691 102.432 27.9294 102.056 28.3323H108.203C108.463 28.3323 108.771 28.3323 109.086 28.3679C109.506 28.4084 109.951 28.5286 110.339 28.7519C111.114 29.1971 111.714 30.1027 111.667 31.1284Z" fill="#FFB800"/>
</svg>
